<svg xmlns="http://www.w3.org/2000/svg" xmlns:xlink="http://www.w3.org/1999/xlink" viewBox="0 0 242.05 34.64"><defs><style>.cls-1{fill:none;}.cls-2,.cls-3{fill:#43773c;}.cls-3{fill-rule:evenodd;}.cls-4{fill:#759e78;}.cls-5{fill:#a19122;}.cls-6{opacity:0.58;}.cls-7{clip-path:url(#clip-path);}.cls-8{fill:#8fb08c;}.cls-9{clip-path:url(#clip-path-2);}.cls-10{clip-path:url(#clip-path-3);}.cls-11{clip-path:url(#clip-path-4);}</style><clipPath id="clip-path"><rect class="cls-1" x="13.13" y="4.15" width="4.05" height="6.41"/></clipPath><clipPath id="clip-path-2"><rect class="cls-1" x="27.99" y="2.32" width="3.82" height="7.55"/></clipPath><clipPath id="clip-path-3"><rect class="cls-1" x="33.65" y="12.81" width="2.17" height="1.54"/></clipPath><clipPath id="clip-path-4"><rect class="cls-1" x="17.66" y="7.58" width="2.89" height="5.38"/></clipPath></defs><title>Recurso 13logo</title><g id="Capa_2" data-name="Capa 2"><g id="Layer_1" data-name="Layer 1"><path class="cls-2" d="M218.76,12.22a2.43,2.43,0,0,1,2.55,2.33,2.56,2.56,0,0,1-5.1,0,2.44,2.44,0,0,1,2.56-2.33m0,4.33a2,2,0,1,0-2.1-2,2,2,0,0,0,2.1,2m-1-3.36h1.15c.71,0,1,.26,1,.78s-.34.7-.78.75l.85,1.21h-.5l-.81-1.17h-.49v1.17h-.46Zm.46,1.22h.48c.4,0,.78,0,.78-.45s-.34-.42-.65-.42h-.61Z"/><path class="cls-3" d="M196.73,29.71h-5.78a6.82,6.82,0,0,1-.15-2.18A8,8,0,0,1,186.06,30c-4,.47-7.83-1.51-7.85-5,0-5.34,6.85-5.83,12.59-5.86-.06-2.18-1.3-3.17-3.71-3.28s-4.93,1.06-6.22,1.36c0-1.23-.3-2.79-.15-3.68,4.39-1.17,11-1.84,14.07.55,2.23,1.72,2,5.12,1.93,8.46a65.43,65.43,0,0,0,0,7.23m-6.07-8.18c-2,.3-3.8-.09-5.33.82-1.37.82-1.79,3.53,0,4.23a4.07,4.07,0,0,0,5.49-4.64.63.63,0,0,0-.15-.41"/><path class="cls-3" d="M177.47,22.62H164.87c.11,2.64,2.19,3.89,5.19,4,2.3.05,4.69-.94,6.22-1.23v3.82c-8.25,2.25-17.51.49-17.63-7.64a9.19,9.19,0,0,1,7.26-9c2.18-.41,5.44-.45,7.85,1,2.82,1.65,4.27,5.73,3.7,9.14m-5.93-2.86c.12,0,.17-.12.14-.28-.09-2.56-1.38-4.18-3.85-4-2.2.21-2.85,1.95-3,4.23Z"/><path class="cls-3" d="M149.47,7.62c0,1.53-.3,2.72-.29,4.23-3.76-1.57-8.46-1.88-11.11.41-3.17,2.73-3.06,9.42.15,12a11.62,11.62,0,0,0,3.7,1.5,16.19,16.19,0,0,0,7.26-1.09c.24,1.44.09,3.57.29,4.64-6,2-13.44.73-16.89-2.18-4.79-4-5-12.87-.59-17.19,3.71-3.6,10.69-4.76,17-2.59a.41.41,0,0,1,.44.27"/><path class="cls-3" d="M118.21,29.85c-1-1.94-2.26-3.74-3.26-5.73a12.67,12.67,0,0,0-2.07,2.73c-.65,1-1.16,2-1.78,3h-6.67c2-3.26,4.45-6.09,6.67-9.14-1.78-2.91-4.14-5.28-5.93-8.18h7.11c1,1.7,2.05,3.38,3,5.18a45,45,0,0,0,3.11-5.18H125c-1.18,2.13-3,3.84-4.59,6a8.49,8.49,0,0,0-1.33,2,8.26,8.26,0,0,0,1.33,2.32c1.49,2.06,3.74,4.86,4.89,6.82-2.08.32-4.79,0-7.11.14"/><path class="cls-3" d="M104.88,22.48H92.14A3.45,3.45,0,0,0,94.36,26c2.81,1.19,7.22-.17,9.33-.68V29c-5.53,1.86-12.63,1.07-15.55-1.64-2-1.87-2.61-5-2.37-7.37.47-4.6,4.65-7.77,9.48-7.91,5.83-.16,9.63,2.71,9.78,9.14a5.8,5.8,0,0,1-.15,1.23M93.47,15.8c-1.18.82-1.28,2.21-1.52,3.85,2.87,0,5,0,6.9,0a3.49,3.49,0,0,0-5.39-3.88"/><path class="cls-3" d="M85.92,16.89c-3.85-.52-6.18.38-6.52,3.41s-.07,7.19-.12,9.38c-2,0-4.38,0-6.55,0-.09-5.73,0-11.85,0-17.32h6.06c0,1.2,0,1.87,0,3A7.07,7.07,0,0,1,81,13.08a8.07,8.07,0,0,1,4.59-1h.3c0,1.54,0,3.85,0,4.77"/><path class="cls-3" d="M71.55,10.35c-2.9,0-7.12,0-9.68,0,0,1.58,0,3.79,0,5.54l9.14,0c0,.86,0,2.52,0,4.08-3.54,0-6,0-9.18,0v9.58c-2.21,0-4.29,0-6.59,0,0-7.74,0-15.56,0-23,5.87,0,10.74.05,16.3.06Z"/><rect class="cls-2" x="151.42" y="4.96" width="6.39" height="24.86"/><path class="cls-3" d="M215.88,17.64c.13,1.1.12,2.92.13,4.56,0,2.57,0,5.3,0,7.46h-6.25c0-1.5,0-4.88,0-7.45s.06-3.84-.55-4.83c-.83-1.33-4.93-2-4.93,3,0,2.93-.11,6.09-.11,9.28H198c0-7.69,0-13.46,0-16.83,1.59,0,4.14,0,5.8,0,0,1,0,1.81,0,2.78a7.18,7.18,0,0,1,2.34-2.29c3.12-1.75,7.54-.68,8.94,1.48a7.22,7.22,0,0,1,.83,2.82"/><polygon class="cls-2" points="219.69 9.19 219.69 4.55 242.05 4.55 242.05 9.19 233.87 9.19 233.87 29.68 227.87 29.68 227.87 9.19 219.69 9.19"/><rect class="cls-2" x="218.26" y="20.14" width="7.92" height="3.24"/><path class="cls-2" d="M23.42,22.67S17.79,20,18.79,12.59a2.7,2.7,0,0,1,3.09-2.12,2.71,2.71,0,0,1,2,2.8S23.89,15,22,17.8a4.85,4.85,0,0,0,1.44,4.88"/><path class="cls-4" d="M23.51,19.37s2.1-5.88,9.55-5.65a2.71,2.71,0,0,1,2.43,2.85,2.71,2.71,0,0,1-2.57,2.32s-1.68.14-4.7-1.46a4.86,4.86,0,0,0-4.71,1.93"/><path class="cls-4" d="M23.24,16.36a8.82,8.82,0,0,0,4.45-9.67,2.72,2.72,0,0,0-3.23-1.9,2.56,2.56,0,0,0-2,2.71s.09,1.6,2.12,4.21a4.4,4.4,0,0,1-1.33,4.65"/><path class="cls-5" d="M19.4,19s-3.09-6.58-7.49-5.21c0,0-2.63,2.74,1.49,4.06,0,0,1.89-1.6,6,1.14"/><path class="cls-4" d="M18,15.53s-1.72-8.24-5.61-7.38c-2.52,1.2-.91,4.69.8,4.69,0,0,2.23-.69,4.8,2.69"/><g class="cls-6"><g class="cls-7"><path class="cls-8" d="M17.17,10.56s.23-6-2.86-6.41c-1.77.34-1.43,3.2.23,3.6,0,0,1.66-.28,2.63,2.81"/></g></g><path class="cls-4" d="M17.51,7.81s2.92-2.29.29-6c0,0-2.75-.92-2.29,2.23,0,0,1.6.4,2,3.77"/><path class="cls-5" d="M22,9.35S16.43,2.6,21.18.2a1.81,1.81,0,0,1,2.35.63c.86,1.37-1,3.26-1,3.26S20.89,5.86,22,9.35"/><path class="cls-4" d="M23.41,4.2S26.33.83,27.47,4c0,0-.23,1.49-1.55.4a2.06,2.06,0,0,0-2.51-.23"/><g class="cls-6"><g class="cls-9"><path class="cls-8" d="M28.61,9.87s1.31-2.8-.57-4.75c0,0-.57-2.75,2.12-2.8,2.8.91,1.2,4,1.2,4S30,9.07,28.61,9.87"/></g></g><path class="cls-4" d="M31,8.21s1.32-3.72,3.66-1.49A6.46,6.46,0,0,0,31,8.21"/><path class="cls-2" d="M26.72,14.22s5.72-8.75,8.52-4.81c0,0,1.66,2.75-2.92,3.26,0,0-2.35-.52-5.61,1.54"/><g class="cls-6"><g class="cls-10"><path class="cls-8" d="M33.65,13.13a1.31,1.31,0,0,1,2.17,1s-1,.69-1.32-.57c0,0-.06-.46-.86-.46"/></g></g><g class="cls-6"><g class="cls-11"><path class="cls-8" d="M18,13S16.66,8.55,19.4,7.58c0,0,1.2-.17,1.15,1.6a1.5,1.5,0,0,1-1.66,1.6s-1,.4-.92,2.17"/></g></g><path class="cls-5" d="M32.5,21s-4.58-4.12-7.44-1.77a2.43,2.43,0,0,0,.69,4.46s2.92.86,3.95-1.83A2.82,2.82,0,0,1,32.5,21"/><path class="cls-4" d="M16.32,18.68s-1.89.17-2.52,1.26c0,0-1.26-.06-.74-1.14a2.46,2.46,0,0,1,3.26-.12"/><path class="cls-2" d="M16.77,19S18.2,17.71,23,23.83c0,0,1.14,1.09,3.43.34,0,0-2.8.68-2.35,4.58,0,0,.92,4.23,2.18,5.89H18.6a9.66,9.66,0,0,0,2.63-6.47s.74-6-4.46-9.15"/><path class="cls-2" d="M7.56,7S-.33,10.27,0,18.16,12.48,31.32,17,32c0,0-12.64-3.26-14.87-14,0,0-1.31-6.12,5.44-11"/><path class="cls-2" d="M38,8.09s8.1,4.14,7.75,11.84S33,31.85,28.33,32.52c0,0,13-2.27,15.25-12.75,0,0,1.35-6.88-5.57-11.67"/></g></g></svg>