<svg xmlns="http://www.w3.org/2000/svg" viewBox="0 0 109.61 34.64"><defs><style>.cls-1,.cls-2{fill:#fff;}.cls-2{fill-rule:evenodd;}</style></defs><title>Recurso 35img</title><g id="Capa_2" data-name="Capa 2"><g id="Foot"><g id="_Grupo_" data-name="&lt;Grupo&gt;"><path id="_Trazado_compuesto_" data-name="&lt;Trazado compuesto&gt;" class="cls-1" d="M20.92,12.53c2,0,4.48,1.93,4.48,3.91v6.69a4.14,4.14,0,0,1-3.82,4.29H4.67V18.71H0V12.63H4.67V0h6.22V12.53Zm-.28,13.15a2.91,2.91,0,0,0,3.16-3.11V16.92c0-1.42-1.41-2.5-3.34-2.5H9.1V1.79H6.22V14.42H1.79V17H6.32v8.67ZM9.1,23.14V17h9.43c2.07,0,2.4,1.13,2.4,2v2.4c0,.8-.8,1.75-2.4,1.75Zm1.7-1.75h8.34V18.8H10.79Zm-2,9.14v2.36a.88.88,0,0,1-.24.61.9.9,0,0,1-.61.23.74.74,0,0,1-.52-.19,1.05,1.05,0,0,1-.14-.61V30.53H6.18v2.74a1.34,1.34,0,0,0,.38,1,1.31,1.31,0,0,0,1,.38,2,2,0,0,0,.7-.19A2.19,2.19,0,0,0,8.86,34v.47H9.94v-4Zm1.88,2.74a1.12,1.12,0,0,0,.47,1,2,2,0,0,0,1.37.38A2.59,2.59,0,0,0,14,34.31a1.21,1.21,0,0,0,.47-1,1,1,0,0,0-.28-.76,3,3,0,0,0-1.13-.43c-.09,0-.19,0-.33-.09-.57-.09-.85-.24-.85-.42s.1-.18.19-.23.23-.1.47-.1a.82.82,0,0,1,.52.15.37.37,0,0,1,.19.37h1.08a1.26,1.26,0,0,0-.47-1,2.18,2.18,0,0,0-1.32-.37,2.05,2.05,0,0,0-1.27.37,1.11,1.11,0,0,0-.47.95.88.88,0,0,0,.33.75,2.56,2.56,0,0,0,1.13.47,2.66,2.66,0,0,1,.42.09c.47.1.66.19.66.38a.29.29,0,0,1-.14.28.94.94,0,0,1-.52.14.9.9,0,0,1-.66-.19.49.49,0,0,1-.24-.42H10.7Zm4.29,0a1.12,1.12,0,0,0,.47,1,2,2,0,0,0,1.36.38,2.51,2.51,0,0,0,1.46-.33,1.25,1.25,0,0,0,.52-1,1,1,0,0,0-.33-.76,2.69,2.69,0,0,0-1.13-.43c-.09,0-.19,0-.33-.09-.51-.09-.8-.24-.8-.42a.26.26,0,0,1,.15-.23c.09-.1.28-.1.47-.1a.74.74,0,0,1,.52.15.53.53,0,0,1,.24.37h1.08a1.32,1.32,0,0,0-.52-1,2.22,2.22,0,0,0-1.32-.37,2.14,2.14,0,0,0-1.27.37,1.24,1.24,0,0,0-.47.95,1,1,0,0,0,.33.75,3.24,3.24,0,0,0,1.13.47A1.49,1.49,0,0,1,17,33c.47.1.71.19.71.38a.32.32,0,0,1-.19.28.83.83,0,0,1-.52.14.9.9,0,0,1-.66-.19.46.46,0,0,1-.19-.42H15Zm4.57-3.16h1.08v-.94H19.56Zm0,4.38h1.08v-4H19.56ZM3,30.06H1.89v1.18H3.21a1.08,1.08,0,0,0,.61-.14C4,31,4,30.86,4,30.63a.46.46,0,0,0-.19-.42,1,1,0,0,0-.61-.14Zm0,4.43H.76V29.17H3.44a2.2,2.2,0,0,1,1.32.33,1.22,1.22,0,0,1,.42,1,1.55,1.55,0,0,1-.14.7,1.09,1.09,0,0,1-.52.43,1.39,1.39,0,0,1,.66.47,1.35,1.35,0,0,1,.24.81,1.38,1.38,0,0,1-.57,1.18,2.4,2.4,0,0,1-1.51.42Zm-1.13-.95H3.25A1,1,0,0,0,4,33.37a.69.69,0,0,0,0-1,1,1,0,0,0-.71-.19H1.89Zm20.92-3.48h.52l1.22-1.32h-1Zm.61,2.07h.85a1.06,1.06,0,0,0-.23-.61.84.84,0,0,0-.62-.24.79.79,0,0,0-.56.24.8.8,0,0,0-.24.61Zm0,1.6h0a1.13,1.13,0,0,0,.47-.09.65.65,0,0,0,.28-.33h1.13a1.64,1.64,0,0,1-.66,1,2.24,2.24,0,0,1-1.27.33A1.94,1.94,0,0,1,22,34.07,2.6,2.6,0,0,1,22,31a2.18,2.18,0,0,1,2.92,0,2.08,2.08,0,0,1,.52,1.56v.28H22.62a1,1,0,0,0,.24.71.78.78,0,0,0,.56.23"/><g id="_Grupo_2" data-name="&lt;Grupo&gt;"><path id="_Trazado_compuesto_2" data-name="&lt;Trazado compuesto&gt;" class="cls-1" d="M35.19,16.86h.45l-.42,2a2.16,2.16,0,0,1-.5,1.08,1.66,1.66,0,0,1-1.23.42c-.94,0-1.31-.5-1.09-1.5l.42-2h.45l-.43,2a1,1,0,0,0,0,.79.81.81,0,0,0,.7.24,1.13,1.13,0,0,0,.79-.26,1.39,1.39,0,0,0,.39-.77Z"/><path id="_Trazado_compuesto_3" data-name="&lt;Trazado compuesto&gt;" class="cls-1" d="M37.31,20.27l.32-1.54a.67.67,0,0,0,0-.54.6.6,0,0,0-.48-.14.82.82,0,0,0-.9.72l-.32,1.49h-.45L36,17.72h.44l-.07.31a1.34,1.34,0,0,1,.94-.36A.77.77,0,0,1,38,18a.92.92,0,0,1,.1.75l-.33,1.55Z"/><path id="_Trazado_compuesto_4" data-name="&lt;Trazado compuesto&gt;" class="cls-1" d="M40.39,20.27V20a1.16,1.16,0,0,1-.85.34.89.89,0,0,1-.8-.36,1.2,1.2,0,0,1-.1-.94,1.46,1.46,0,0,1,1.51-1.35.65.65,0,0,1,.67.36l.07-.31h.43l-.55,2.55Zm-.3-2.22c-.53,0-.86.32-1,1a1,1,0,0,0,0,.68.58.58,0,0,0,.55.24c.49,0,.81-.31.94-.93a1.11,1.11,0,0,0,0-.73A.51.51,0,0,0,40.09,18.06Z"/><path id="_Trazado_compuesto_5" data-name="&lt;Trazado compuesto&gt;" class="cls-1" d="M45.35,20a1.67,1.67,0,0,1-1.08.37,1,1,0,0,1-.85-.35,1.07,1.07,0,0,1-.18-1,1.65,1.65,0,0,1,.57-1,1.5,1.5,0,0,1,1-.35,1.16,1.16,0,0,1,.9.35l-.31.29a.82.82,0,0,0-.65-.25,1,1,0,0,0-.66.25,1.28,1.28,0,0,0-.38.7c-.13.63.09.94.65.94a1.12,1.12,0,0,0,.8-.29Z"/><path id="_Trazado_compuesto_6" data-name="&lt;Trazado compuesto&gt;" class="cls-1" d="M47,20.32a1,1,0,0,1-.84-.34A1.14,1.14,0,0,1,46,19a1.47,1.47,0,0,1,1.56-1.34,1.07,1.07,0,0,1,.81.29,1.12,1.12,0,0,1,.18,1A1.7,1.7,0,0,1,48,20,1.51,1.51,0,0,1,47,20.32Zm.48-2.27c-.54,0-.88.31-1,1a1,1,0,0,0,0,.68.6.6,0,0,0,.58.25c.54,0,.88-.31,1-.93a1,1,0,0,0,0-.71A.6.6,0,0,0,47.44,18.06Z"/><path id="_Trazado_compuesto_7" data-name="&lt;Trazado compuesto&gt;" class="cls-1" d="M51.62,20.27,52,18.63a.71.71,0,0,0,0-.43c0-.09-.17-.14-.37-.14s-.52.19-.6.57l-.35,1.65h-.44l.35-1.64a.7.7,0,0,0,0-.44.36.36,0,0,0-.34-.14c-.33,0-.54.21-.63.64l-.33,1.58h-.44l.54-2.55h.43l-.07.31a.83.83,0,0,1,.71-.36.51.51,0,0,1,.52.38,1,1,0,0,1,.84-.38.62.62,0,0,1,.55.24.83.83,0,0,1,.08.66l-.36,1.7Z"/><path id="_Trazado_compuesto_8" data-name="&lt;Trazado compuesto&gt;" class="cls-1" d="M52.65,21.17l.73-3.44h.43l-.07.31a1.09,1.09,0,0,1,.84-.36.88.88,0,0,1,.78.35,1.29,1.29,0,0,1,.1,1c-.19.89-.67,1.33-1.43,1.33a.72.72,0,0,1-.68-.34l-.26,1.18ZM55,18.27c-.08-.15-.25-.22-.52-.22-.5,0-.82.32-.95,1s0,.93.54.93.8-.32.94-.95A1.13,1.13,0,0,0,55,18.27Z"/><path id="_Trazado_compuesto_9" data-name="&lt;Trazado compuesto&gt;" class="cls-1" d="M57.7,20.27V20a1.15,1.15,0,0,1-.85.34.89.89,0,0,1-.8-.36A1.19,1.19,0,0,1,56,19a1.45,1.45,0,0,1,1.51-1.35.65.65,0,0,1,.67.36l.07-.31h.43l-.55,2.55Zm-.3-2.22c-.53,0-.86.32-1,1a1,1,0,0,0,0,.68.57.57,0,0,0,.55.24c.49,0,.81-.31.94-.93a1.12,1.12,0,0,0,0-.73A.51.51,0,0,0,57.4,18.06Z"/><path id="_Trazado_compuesto_10" data-name="&lt;Trazado compuesto&gt;" class="cls-1" d="M60.68,20.27,61,18.74a.66.66,0,0,0,0-.54.6.6,0,0,0-.48-.14.83.83,0,0,0-.9.72l-.32,1.49h-.45l.54-2.55h.44l-.07.31a1.33,1.33,0,0,1,.94-.36.78.78,0,0,1,.68.3.94.94,0,0,1,.1.75l-.33,1.55Zm.9-3.23a.69.69,0,0,1-.92.23.78.78,0,0,0-.3-.09.44.44,0,0,0-.36.18l-.22-.24a.82.82,0,0,1,.65-.32.73.73,0,0,1,.3.09A.79.79,0,0,0,61,17a.39.39,0,0,0,.34-.18Z"/><path id="_Trazado_compuesto_11" data-name="&lt;Trazado compuesto&gt;" class="cls-1" d="M61.94,20.27l.54-2.55h.45l-.54,2.55Zm.59-2.91-.2-.26.8-.69.25.32Z"/><path id="_Trazado_compuesto_12" data-name="&lt;Trazado compuesto&gt;" class="cls-1" d="M65,20.27l0-.29a1.15,1.15,0,0,1-.85.34.89.89,0,0,1-.8-.36,1.2,1.2,0,0,1-.1-.94,1.46,1.46,0,0,1,1.51-1.35.66.66,0,0,1,.67.36l.07-.31H66l-.55,2.55Zm-.3-2.22c-.53,0-.86.32-1,1a1,1,0,0,0,0,.68.57.57,0,0,0,.55.24c.5,0,.81-.31.94-.93a1.12,1.12,0,0,0,0-.73A.51.51,0,0,0,64.73,18.06Z"/></g><g id="_Grupo_3" data-name="&lt;Grupo&gt;"><path id="_Trazado_compuesto_13" data-name="&lt;Trazado compuesto&gt;" class="cls-1" d="M40.42,25.13l.06-.3a1.05,1.05,0,0,1-.84.35.87.87,0,0,1-.77-.35,1.24,1.24,0,0,1-.11-1,1.87,1.87,0,0,1,.49-1,1.32,1.32,0,0,1,1-.38.66.66,0,0,1,.67.34l.25-1.18h.45l-.73,3.44Zm-.28-2.22a.82.82,0,0,0-.6.25,1.4,1.4,0,0,0-.34.69,1.09,1.09,0,0,0,0,.71.55.55,0,0,0,.52.22c.5,0,.81-.32.94-1S40.64,22.91,40.15,22.91Z"/><path id="_Trazado_compuesto_14" data-name="&lt;Trazado compuesto&gt;" class="cls-1" d="M42.2,24.07c-.09.49.12.73.63.73a1.22,1.22,0,0,0,.85-.3l.2.31a1.83,1.83,0,0,1-1.13.37,1,1,0,0,1-.83-.36,1.15,1.15,0,0,1-.14-.94,1.76,1.76,0,0,1,.54-1,1.41,1.41,0,0,1,1-.36.89.89,0,0,1,.8.34,1.13,1.13,0,0,1,.09.88l-.07.31Zm1.56-.39a.75.75,0,0,0,0-.56.57.57,0,0,0-.52-.2.92.92,0,0,0-.63.23,1,1,0,0,0-.3.53Z"/><path id="_Trazado_compuesto_15" data-name="&lt;Trazado compuesto&gt;" class="cls-1" d="M44.46,25.13l.81-3.82h.45l-.81,3.82Z"/><path id="_Trazado_compuesto_16" data-name="&lt;Trazado compuesto&gt;" class="cls-1" d="M48.9,24.79a1.14,1.14,0,0,1-.82.34.85.85,0,0,1-.8-.36,1.24,1.24,0,0,1-.08-.94,1.4,1.4,0,0,1,1.45-1.3.67.67,0,0,1,.67.36l.06-.31h.43l-.54,2.53A1.15,1.15,0,0,1,48,26a1.31,1.31,0,0,1-.91-.32l.27-.27a1,1,0,0,0,.66.22.72.72,0,0,0,.81-.56Zm-1.25-1a1,1,0,0,0,0,.68.53.53,0,0,0,.52.23c.5,0,.8-.29.93-.87s0-1-.52-1S47.77,23.22,47.65,23.83Z"/><path id="_Trazado_compuesto_17" data-name="&lt;Trazado compuesto&gt;" class="cls-1" d="M49.79,25.13l.54-2.55h.44l-.06.27a.9.9,0,0,1,.68-.31.51.51,0,0,1,.45.22l-.32.29a.44.44,0,0,0-.36-.13.56.56,0,0,0-.58.51l-.36,1.7Z"/><path id="_Trazado_compuesto_18" data-name="&lt;Trazado compuesto&gt;" class="cls-1" d="M53.73,25.13l.06-.3a1.31,1.31,0,0,1-.92.35.77.77,0,0,1-.67-.3,1,1,0,0,1-.12-.82l.31-1.49h.45l-.32,1.49a.72.72,0,0,0,0,.58.57.57,0,0,0,.47.15.81.81,0,0,0,.88-.73l.32-1.49h.45l-.54,2.55Z"/><path id="_Trazado_compuesto_19" data-name="&lt;Trazado compuesto&gt;" class="cls-1" d="M54.71,26l.73-3.44h.43l-.07.31a1.09,1.09,0,0,1,.84-.36.87.87,0,0,1,.78.34,1.27,1.27,0,0,1,.1,1c-.19.89-.67,1.33-1.43,1.33a.72.72,0,0,1-.68-.34L55.16,26Zm2.36-2.89c-.07-.15-.25-.22-.52-.22-.5,0-.82.32-.95,1s0,.92.54.92.8-.32.94-.95A1.11,1.11,0,0,0,57.07,23.13Z"/><path id="_Trazado_compuesto_20" data-name="&lt;Trazado compuesto&gt;" class="cls-1" d="M59.11,25.18a1,1,0,0,1-.84-.34,1.14,1.14,0,0,1-.15-1,1.47,1.47,0,0,1,1.55-1.34,1.07,1.07,0,0,1,.81.29,1.12,1.12,0,0,1,.18,1,1.71,1.71,0,0,1-.54,1A1.51,1.51,0,0,1,59.11,25.18Zm.48-2.27c-.54,0-.88.31-1,1a1,1,0,0,0,0,.69.61.61,0,0,0,.58.24c.54,0,.88-.31,1-.93a1.08,1.08,0,0,0,0-.71C60.09,23,59.89,22.91,59.6,22.91Z"/></g><path id="_Trazado_compuesto_21" data-name="&lt;Trazado compuesto&gt;" class="cls-2" d="M94.6,15.85l.18.06V17l-.74,0c-.35,0-.51.19-.52.53,0,.75,0,1.5,0,2.25a.34.34,0,0,0,0,.06h2.19c.12,0,.17,0,.19-.16A4,4,0,0,1,97,17.41a3.15,3.15,0,0,1,2-.87,3.34,3.34,0,0,1,1.73.24,3,3,0,0,1,1.54,1.79,6.61,6.61,0,0,1,.37,2.24c0,.17-.1.15-.2.15H97.19a2.08,2.08,0,0,0,1.46,2.36,2.06,2.06,0,0,0,2.65-1.37h1.21a1.86,1.86,0,0,1,0,.2,3.3,3.3,0,0,1-1.4,2,2.83,2.83,0,0,1-1.22.4,4,4,0,0,1-2-.19A3.18,3.18,0,0,1,96,22.05a6.1,6.1,0,0,1-.14-.82c0-.14-.06-.19-.21-.18h-2c-.15,0-.18,0-.18.18q0,1.56,0,3.13v.21H92.23V21.06h-1V20h1c0-.08,0-.14,0-.21,0-.77,0-1.54,0-2.31A1.33,1.33,0,0,1,93.44,16c.21,0,.43-.07.64-.1Zm6.74,4.08a2.29,2.29,0,0,0-1-2,2,2,0,0,0-2.18,0,2.33,2.33,0,0,0-1,2ZM71.71,22l.1.47a2.35,2.35,0,0,0,1.64,1.91,4.64,4.64,0,0,0,2.63,0,2.43,2.43,0,0,0,1.72-1.52,2.89,2.89,0,0,0,.11-1.22,1.4,1.4,0,0,0-.32-.84,1.77,1.77,0,0,0-.88-.58c-.85-.25-1.7-.49-2.55-.72a1.28,1.28,0,0,1-.62-.33.72.72,0,0,1-.21-.64.94.94,0,0,1,.83-.79,6,6,0,0,1,1,0,1.13,1.13,0,0,1,1.09.89c0,.07,0,.16.06.23s.06.1.09.1h1.29c0-.18-.06-.34-.1-.51a2.19,2.19,0,0,0-1.49-1.7,4.32,4.32,0,0,0-2.45-.07,2.26,2.26,0,0,0-1.77,2.55,1.28,1.28,0,0,0,.48.95,3.25,3.25,0,0,0,.79.47c.59.22,1.19.38,1.8.56.37.11.75.18,1.11.31a.78.78,0,0,1,.32,1.21,1.49,1.49,0,0,1-.74.48,3.88,3.88,0,0,1-1.2.09A1.35,1.35,0,0,1,73.1,22c0-.11,0-.14-.15-.14H71.85a.58.58,0,0,0-.14,0Zm37.9-4.36,0,.11a1.18,1.18,0,0,1-1.32.89,1.17,1.17,0,0,1,.06-2.33,1.17,1.17,0,0,1,1.26.94.33.33,0,0,0,0,.09Zm-1.17-1.19a1,1,0,0,0-1,1,1,1,0,1,0,2.05,0,1,1,0,0,0-1-1M83.26,23.35c-.18.16-.33.29-.46.42a2.72,2.72,0,0,1-1.54.78,3.89,3.89,0,0,1-1.6-.06,2.23,2.23,0,0,1-1.47-1.73,2.5,2.5,0,0,1,.21-1.44A2.19,2.19,0,0,1,80,20.13c.68-.13,1.37-.18,2.06-.27a4.64,4.64,0,0,0,.56-.1.66.66,0,0,0,.49-.62,1.23,1.23,0,0,0-1.27-1.4,4.84,4.84,0,0,0-.94,0,1.34,1.34,0,0,0-1.19,1.31s0,0,0,.09H78.6s-.08-.07-.08-.11a2,2,0,0,1,1.18-2,4.17,4.17,0,0,1,3.47-.11,1.82,1.82,0,0,1,1.23,1.73c0,1.31,0,2.63,0,3.94,0,.23,0,.47,0,.7s.07.32.33.35c.11,0,.14.05.14.15s0,.41,0,.62,0,.14-.12.13a4,4,0,0,1-.81,0,.86.86,0,0,1-.7-.85c0-.08,0-.17,0-.31m-.1-2.8-.18.07c-.34.09-.68.2-1,.27s-.86.1-1.28.17a1.4,1.4,0,0,0-.87.4,1.27,1.27,0,0,0-.26,1,1,1,0,0,0,.79.91,2.54,2.54,0,0,0,2.39-.66,1.29,1.29,0,0,0,.39-.75,3.49,3.49,0,0,0,0-.5c0-.31,0-.61,0-1m2,4h1.27v-.22c0-1.21,0-2.42,0-3.63a4.5,4.5,0,0,1,.09-.92,1.89,1.89,0,0,1,1.05-1.42,1.3,1.3,0,0,1,1.92,1,5.81,5.81,0,0,1,.08,1c0,.91,0,1.82,0,2.74,0,.47,0,.93,0,1.4,0,.12,0,.16.16.15h1.14v-.21c0-1.57,0-3.15,0-4.72a4.17,4.17,0,0,0-.06-.76,2,2,0,0,0-1.42-1.65,3.3,3.3,0,0,0-1.59-.1,2,2,0,0,0-1.38.83s0,0-.1.08v-.79H85.18Zm18-.06h1.13s.1-.08.1-.12,0-.38,0-.57c0-1.37,0-2.75,0-4.12a1.83,1.83,0,0,1,1.81-1.8h.52v-1c0-.48,0-.5-.52-.42a2.41,2.41,0,0,0-1.77,1.27l-.08.13-.05,0V16.75h-1.16v7.76m5-6.36H108V16.86l.68,0a.33.33,0,0,1,.1.62l-.06,0c.24.17.25.19.23.59-.13,0-.18,0-.18-.15a.36.36,0,0,0-.51-.35.13.13,0,0,0-.06.11c0,.13,0,.26,0,.4m0-.64a3.07,3.07,0,0,0,.41,0,.2.2,0,0,0,.16-.23.2.2,0,0,0-.18-.22,3.34,3.34,0,0,0-.38,0Z"/></g></g></g></svg>