<svg xmlns="http://www.w3.org/2000/svg" xmlns:xlink="http://www.w3.org/1999/xlink" viewBox="0 0 71.95 96.98"><defs><style>.cls-1{fill:url(#linear-gradient);}</style><linearGradient id="linear-gradient" y1="48.49" x2="71.95" y2="48.49" gradientUnits="userSpaceOnUse"><stop offset="0" stop-color="#5a9edf"/><stop offset="1" stop-color="#5fa779"/></linearGradient></defs><title>Recurso 23img</title><g id="Capa_2" data-name="Capa 2"><g id="Layer_1" data-name="Layer 1"><path class="cls-1" d="M19.86,50.51a2.2,2.2,0,0,0-3,0C16.21,51.15,0,66.16,0,78.61a18.38,18.38,0,1,0,36.76,0C36.76,66.16,20.55,51.15,19.86,50.51ZM18.38,92.6a14,14,0,0,1-14-14c0-8.56,10.14-19.55,14-23.43,5,4.93,14,15.56,14,23.43A14,14,0,0,1,18.38,92.6Zm0-9.75a2.19,2.19,0,1,1,0,4.39,8.64,8.64,0,0,1-8.63-8.63,2.19,2.19,0,1,1,4.39,0A4.25,4.25,0,0,0,18.38,82.85ZM71.31,3.74l-33.8,33.8a14,14,0,0,1-13.35,3.63l-.25.26a7,7,0,1,1-10-10l.26-.26a14,14,0,0,1,3.63-13.34L35.05.64a2.19,2.19,0,0,1,3.1,3.1L20.93,21A9.56,9.56,0,0,0,18.75,31a2.2,2.2,0,0,1-.5,2.32L17,34.56a2.66,2.66,0,0,0,3.76,3.76l1.2-1.2a2.19,2.19,0,0,1,2.32-.5,9.56,9.56,0,0,0,10.08-2.19L68.21.64a2.19,2.19,0,1,1,3.1,3.1Zm-46.59,21L39.09,10.39a2.19,2.19,0,1,1,3.1,3.1L27.83,27.85a2.19,2.19,0,0,1-3.1-3.1Z"/></g></g></svg>