<svg xmlns="http://www.w3.org/2000/svg" xmlns:xlink="http://www.w3.org/1999/xlink" viewBox="0 0 96.99 96.99"><defs><style>.cls-1{fill:url(#linear-gradient);}</style><linearGradient id="linear-gradient" y1="48.49" x2="96.99" y2="48.49" gradientUnits="userSpaceOnUse"><stop offset="0" stop-color="#5a9edf"/><stop offset="1" stop-color="#5fa779"/></linearGradient></defs><title>Recurso 21img</title><g id="Capa_2" data-name="Capa 2"><g id="Layer_1" data-name="Layer 1"><path class="cls-1" d="M32.17,27.31V2.19a2.19,2.19,0,1,1,4.39,0V27.31a2.19,2.19,0,1,1-4.39,0ZM23.52,94.79A2.19,2.19,0,0,1,21.33,97H6.61A6.62,6.62,0,0,1,0,90.38V75.66a2.19,2.19,0,1,1,4.39,0V90.38A2.23,2.23,0,0,0,6.61,92.6H21.33A2.19,2.19,0,0,1,23.52,94.79ZM79.82,58a5.74,5.74,0,0,1,5.49,4.14,2.2,2.2,0,0,0,2.11,1.58h7.37a2.19,2.19,0,1,0,0-4.39H88.92a10.16,10.16,0,0,0-9.1-5.72H74.91a2.19,2.19,0,0,0-1.82,1L71.47,57a34.79,34.79,0,0,0-45.95,0L23.89,54.6a2.19,2.19,0,0,0-1.81-1H17.17a10.16,10.16,0,0,0-9.1,5.72H2.19a2.19,2.19,0,1,0,0,4.39H9.56a2.2,2.2,0,0,0,2.11-1.58A5.74,5.74,0,0,1,17.17,58h3.74L46.68,96a2.19,2.19,0,0,0,3.63,0L76.08,58ZM48.49,56.63a6.72,6.72,0,0,0,5.79-3.35,30.13,30.13,0,0,1,5.6,1.65,12.44,12.44,0,0,1-22.79,0,30.15,30.15,0,0,1,5.6-1.65A6.72,6.72,0,0,0,48.49,56.63Zm0,34.26L28,60.67a30.51,30.51,0,0,1,5.15-3.8,16.83,16.83,0,0,0,30.68,0A30.52,30.52,0,0,1,69,60.67Zm-20.8-47a2.19,2.19,0,0,1,1.06-2.91,46.76,46.76,0,0,1,39.49.15,2.19,2.19,0,0,1-1.88,4,42.39,42.39,0,0,0-35.76-.13A2.19,2.19,0,0,1,27.69,43.84ZM46.3,27.31V2.19a2.19,2.19,0,1,1,4.39,0V27.31a2.19,2.19,0,1,1-4.39,0Zm14.13,0V2.19a2.19,2.19,0,1,1,4.39,0V27.31a2.19,2.19,0,0,1-4.39,0ZM97,75.66V90.38A6.62,6.62,0,0,1,90.38,97H75.66a2.19,2.19,0,1,1,0-4.39H90.38a2.23,2.23,0,0,0,2.22-2.22V75.66a2.19,2.19,0,0,1,4.39,0Z"/></g></g></svg>