<svg xmlns="http://www.w3.org/2000/svg" xmlns:xlink="http://www.w3.org/1999/xlink" viewBox="0 0 96.99 96.99"><defs><style>.cls-1{fill:url(#linear-gradient);}</style><linearGradient id="linear-gradient" y1="48.49" x2="96.99" y2="48.49" gradientUnits="userSpaceOnUse"><stop offset="0" stop-color="#5a9edf"/><stop offset="1" stop-color="#5fa779"/></linearGradient></defs><title>Recurso 22img</title><g id="Capa_2" data-name="Capa 2"><g id="Layer_1" data-name="Layer 1"><path class="cls-1" d="M49.33,0H39.51a2.19,2.19,0,0,0-2.19,2.19v92.6A2.19,2.19,0,0,0,39.51,97h9.82a2.19,2.19,0,0,0,2-1.2,103.25,103.25,0,0,0,11.31-47.3A103.24,103.24,0,0,0,51.28,1.2,2.19,2.19,0,0,0,49.33,0ZM48,92.6H41.71V4.39H48A98.93,98.93,0,0,1,58.21,48.49,98.93,98.93,0,0,1,48,92.6ZM69.71,17.26a2.19,2.19,0,0,1,0-3.1l6.9-6.9a2.19,2.19,0,0,1,3.1,3.1l-3.16,3.16H94.8a2.19,2.19,0,0,1,0,4.39H76.56l3.16,3.16a2.19,2.19,0,1,1-3.1,3.1ZM97,48.49a2.19,2.19,0,0,1-2.19,2.19H76.56l3.16,3.16a2.19,2.19,0,1,1-3.1,3.1L69.71,50a2.19,2.19,0,0,1,0-3.1l6.9-6.9a2.19,2.19,0,1,1,3.1,3.1L76.56,46.3H94.8A2.19,2.19,0,0,1,97,48.49Zm0,32.78a2.19,2.19,0,0,1-2.19,2.19H76.56l3.16,3.16a2.19,2.19,0,1,1-3.1,3.1l-6.9-6.9a2.19,2.19,0,0,1,0-3.1l6.9-6.9a2.19,2.19,0,0,1,3.1,3.1l-3.16,3.16H94.8A2.19,2.19,0,0,1,97,81.27ZM10.76,50.69a5.65,5.65,0,0,1-1,1.59L29.56,75a2.19,2.19,0,1,1-3.31,2.88L5.5,54.09a5.6,5.6,0,0,1,0-11.2L26.26,19.06a2.19,2.19,0,1,1,3.31,2.88L9.73,44.71a5.67,5.67,0,0,1,1,1.59H27.91a2.19,2.19,0,1,1,0,4.39Z"/></g></g></svg>