<svg xmlns="http://www.w3.org/2000/svg" xmlns:xlink="http://www.w3.org/1999/xlink" viewBox="0 0 96.99 96.99"><defs><style>.cls-1{fill:url(#linear-gradient);}</style><linearGradient id="linear-gradient" y1="48.49" x2="96.99" y2="48.49" gradientUnits="userSpaceOnUse"><stop offset="0" stop-color="#5a9edf"/><stop offset="1" stop-color="#5fa779"/></linearGradient></defs><title>Recurso 24img</title><g id="Capa_2" data-name="Capa 2"><g id="Layer_1" data-name="Layer 1"><path class="cls-1" d="M76.18,55.37A20.81,20.81,0,1,0,97,76.18,20.83,20.83,0,0,0,76.18,55.37Zm0,37.23A16.42,16.42,0,1,1,92.6,76.18,16.44,16.44,0,0,1,76.18,92.6Zm2.19-25.29a2.19,2.19,0,0,1-2.19,2.19,6.68,6.68,0,0,0-6.67,6.68,2.19,2.19,0,1,1-4.39,0A11.07,11.07,0,0,1,76.18,65.12,2.19,2.19,0,0,1,78.37,67.31ZM44.17,79.59a4.39,4.39,0,1,1-4.39-4.39A4.39,4.39,0,0,1,44.17,79.59Zm-17.7,0a4.39,4.39,0,1,1-4.39-4.39A4.39,4.39,0,0,1,26.47,79.59Zm-17.7,0A4.39,4.39,0,1,1,4.39,75.2,4.39,4.39,0,0,1,8.77,79.59ZM30.62,37.23A17.87,17.87,0,1,0,48.49,19.36,17.89,17.89,0,0,0,30.62,37.23Zm31.36,0A13.48,13.48,0,1,1,48.49,23.74,13.5,13.5,0,0,1,62,37.23Zm-21.61,0a8.12,8.12,0,1,0,8.12-8.13A8.13,8.13,0,0,0,40.37,37.23Zm11.86,0a3.74,3.74,0,1,1-3.74-3.74A3.74,3.74,0,0,1,52.23,37.23Zm1.88,24.08a2.2,2.2,0,0,1-2,2.37c-1.22.1-2.43.15-3.61.15-26.28,0-47.1-24.12-48-25.15a2.19,2.19,0,0,1,0-2.84A84.22,84.22,0,0,1,11.95,25.15L8.47,20.9a2.19,2.19,0,0,1,3.4-2.78l3.61,4.41A74,74,0,0,1,28.1,15.29L25,8.08a2.19,2.19,0,1,1,4-1.71l3.1,7.29A49.34,49.34,0,0,1,46.3,10.74V2.19a2.19,2.19,0,0,1,4.39,0v8.55a49.34,49.34,0,0,1,14.13,2.91l3.1-7.29a2.19,2.19,0,1,1,4,1.71l-3.06,7.21a74,74,0,0,1,12.63,7.24l3.61-4.41a2.19,2.19,0,0,1,3.4,2.78L85,25.15A84.34,84.34,0,0,1,96.46,35.84a2.19,2.19,0,0,1,0,2.84,85.89,85.89,0,0,1-12.67,11.6,2.19,2.19,0,0,1-2.64-3.5,88.23,88.23,0,0,0,10.67-9.52C87,32.16,69.22,15.07,48.49,15.07S10,32.15,5.16,37.26C10,42.36,27.77,59.45,48.49,59.45c1.06,0,2.15,0,3.25-.14A2.19,2.19,0,0,1,54.11,61.31Z"/></g></g></svg>